<svg width="800" height="600" viewBox="0 0 800 600" fill="none" xmlns="http://www.w3.org/2000/svg">
  <!-- Background -->
  <rect width="800" height="600" rx="24" fill="#1E293B"/>
  <rect width="800" height="600" rx="24" stroke="#FFFFFF" stroke-opacity="0.1"/>
  
  <!-- Decorative Glow -->
  <defs>
    <radialGradient id="glow" cx="0" cy="0" r="1" gradientUnits="userSpaceOnUse" gradientTransform="translate(700 100) rotate(90) scale(200)">
      <stop stop-color="#00FFFF" stop-opacity="0.1"/>
      <stop offset="1" stop-color="#00FFFF" stop-opacity="0"/>
    </radialGradient>
    <linearGradient id="titleGradient" x1="0" y1="0" x2="800" y2="0" gradientUnits="userSpaceOnUse">
      <stop stop-color="#00FFFF"/>
      <stop offset="1" stop-color="#FF00FF"/>
    </linearGradient>
  </defs>
  <rect width="800" height="600" rx="24" fill="url(#glow)"/>

  <!-- Title Section -->
  <text x="400" y="70" font-family="Segoe UI, Roboto, sans-serif" font-size="40" font-weight="bold" fill="url(#titleGradient)" text-anchor="middle" letter-spacing="2">OPEN GESTURES</text>
  <text x="400" y="105" font-family="Segoe UI, Roboto, sans-serif" font-size="16" fill="#94A3B8" text-anchor="middle">Super minimal. Lightning fast.</text>
  <rect x="250" y="125" width="300" height="32" rx="16" fill="white" fill-opacity="0.05" stroke="white" stroke-opacity="0.1"/>
  <text x="400" y="146" font-family="Segoe UI, Roboto, sans-serif" font-size="14" fill="#F8FAFC" text-anchor="middle">Hold Middle Mouse Button and move</text>

  <!-- Center Hub -->
  <g transform="translate(370, 320)">
    <rect width="60" height="90" rx="30" stroke="#94A3B8" stroke-width="3"/>
    <rect x="27" y="15" width="6" height="15" rx="3" fill="#FF00FF">
      <animate attributeName="opacity" values="0.4;1;0.4" dur="2s" repeatCount="indefinite" />
    </rect>
    <text x="30" y="110" font-family="Segoe UI, Roboto, sans-serif" font-size="10" fill="#94A3B8" text-anchor="middle">START HERE</text>
  </g>

  <!-- Cards (180x120) -->
  <!-- Top Left: Prev Tab (Up-Left) -->
  <g transform="translate(100, 180)">
    <rect width="180" height="120" rx="16" fill="white" fill-opacity="0.03" stroke="#FF00FF" stroke-opacity="0.2"/>
    <g transform="translate(18, 12) scale(0.8)">
        <path d="M135 100L45 15M45 15V75M45 15H105" stroke="#FF00FF" stroke-width="8" stroke-opacity="0.15" stroke-linecap="round" stroke-linejoin="round"/>
    </g>
    <text x="90" y="55" font-family="Segoe UI, Roboto, sans-serif" font-size="18" font-weight="bold" fill="#F8FAFC" text-anchor="middle">Prev Tab</text>
    <text x="90" y="80" font-family="Segoe UI, Roboto, sans-serif" font-size="12" fill="#94A3B8" text-anchor="middle">UP-LEFT</text>
  </g>

  <!-- Top: Scroll Top (Up) -->
  <g transform="translate(310, 180)">
    <rect width="180" height="120" rx="16" fill="white" fill-opacity="0.03" stroke="#00FFFF" stroke-opacity="0.2"/>
    <g transform="translate(18, 12) scale(0.8)">
        <path d="M90 100V15M90 15L45 60M90 15L135 60" stroke="#00FFFF" stroke-width="8" stroke-opacity="0.15" stroke-linecap="round" stroke-linejoin="round"/>
    </g>
    <text x="90" y="55" font-family="Segoe UI, Roboto, sans-serif" font-size="18" font-weight="bold" fill="#F8FAFC" text-anchor="middle">Scroll Top</text>
    <text x="90" y="80" font-family="Segoe UI, Roboto, sans-serif" font-size="12" fill="#94A3B8" text-anchor="middle">UP</text>
  </g>

  <!-- Top Right: Next Tab (Up-Right) -->
  <g transform="translate(520, 180)">
    <rect width="180" height="120" rx="16" fill="white" fill-opacity="0.03" stroke="#FF00FF" stroke-opacity="0.2"/>
    <g transform="translate(18, 12) scale(0.8)">
        <path d="M45 100L135 15M135 15H75M135 15V75" stroke="#FF00FF" stroke-width="8" stroke-opacity="0.15" stroke-linecap="round" stroke-linejoin="round"/>
    </g>
    <text x="90" y="55" font-family="Segoe UI, Roboto, sans-serif" font-size="18" font-weight="bold" fill="#F8FAFC" text-anchor="middle">Next Tab</text>
    <text x="90" y="80" font-family="Segoe UI, Roboto, sans-serif" font-size="12" fill="#94A3B8" text-anchor="middle">UP-RIGHT</text>
  </g>

  <!-- Left: Back (Left) -->
  <g transform="translate(100, 320)">
    <rect width="180" height="120" rx="16" fill="white" fill-opacity="0.03" stroke="#00FFFF" stroke-opacity="0.2"/>
    <g transform="translate(18, 12) scale(0.8)">
        <path d="M150 60H30M30 60L75 105M30 60L75 15" stroke="#00FFFF" stroke-width="8" stroke-opacity="0.15" stroke-linecap="round" stroke-linejoin="round"/>
    </g>
    <text x="90" y="55" font-family="Segoe UI, Roboto, sans-serif" font-size="18" font-weight="bold" fill="#F8FAFC" text-anchor="middle">Back</text>
    <text x="90" y="80" font-family="Segoe UI, Roboto, sans-serif" font-size="12" fill="#94A3B8" text-anchor="middle">LEFT</text>
  </g>

  <!-- Right: Forward (Right) -->
  <g transform="translate(520, 320)">
    <rect width="180" height="120" rx="16" fill="white" fill-opacity="0.03" stroke="#00FFFF" stroke-opacity="0.2"/>
    <g transform="translate(18, 12) scale(0.8)">
        <path d="M30 60H150M150 60L105 15M150 60L105 105" stroke="#00FFFF" stroke-width="8" stroke-opacity="0.15" stroke-linecap="round" stroke-linejoin="round"/>
    </g>
    <text x="90" y="55" font-family="Segoe UI, Roboto, sans-serif" font-size="18" font-weight="bold" fill="#F8FAFC" text-anchor="middle">Forward</text>
    <text x="90" y="80" font-family="Segoe UI, Roboto, sans-serif" font-size="12" fill="#94A3B8" text-anchor="middle">RIGHT</text>
  </g>

  <!-- Bottom Left: New Tab (Down-Left) -->
  <g transform="translate(100, 460)">
    <rect width="180" height="120" rx="16" fill="white" fill-opacity="0.03" stroke="#FF00FF" stroke-opacity="0.2"/>
    <g transform="translate(18, 12) scale(0.8)">
        <path d="M135 15L45 105M45 105H105M45 105V45" stroke="#FF00FF" stroke-width="8" stroke-opacity="0.15" stroke-linecap="round" stroke-linejoin="round"/>
    </g>
    <text x="90" y="55" font-family="Segoe UI, Roboto, sans-serif" font-size="18" font-weight="bold" fill="#F8FAFC" text-anchor="middle">New Tab</text>
    <text x="90" y="80" font-family="Segoe UI, Roboto, sans-serif" font-size="12" fill="#94A3B8" text-anchor="middle">DOWN-LEFT</text>
  </g>

  <!-- Bottom: Scroll Bottom (Down) -->
  <g transform="translate(310, 460)">
    <rect width="180" height="120" rx="16" fill="white" fill-opacity="0.03" stroke="#00FFFF" stroke-opacity="0.2"/>
    <g transform="translate(18, 12) scale(0.8)">
        <path d="M90 15V105M90 105L135 60M90 105L45 60" stroke="#00FFFF" stroke-width="8" stroke-opacity="0.15" stroke-linecap="round" stroke-linejoin="round"/>
    </g>
    <text x="90" y="55" font-family="Segoe UI, Roboto, sans-serif" font-size="18" font-weight="bold" fill="#F8FAFC" text-anchor="middle">Scroll Bottom</text>
    <text x="90" y="80" font-family="Segoe UI, Roboto, sans-serif" font-size="12" fill="#94A3B8" text-anchor="middle">DOWN</text>
  </g>

  <!-- Bottom Right: Close Tab (Down-Right) -->
  <g transform="translate(520, 460)">
    <rect width="180" height="120" rx="16" fill="white" fill-opacity="0.03" stroke="#FF00FF" stroke-opacity="0.2"/>
    <g transform="translate(18, 12) scale(0.8)">
        <path d="M45 15L135 105M135 105V45M135 105H75" stroke="#FF00FF" stroke-width="8" stroke-opacity="0.15" stroke-linecap="round" stroke-linejoin="round"/>
    </g>
    <text x="90" y="55" font-family="Segoe UI, Roboto, sans-serif" font-size="18" font-weight="bold" fill="#F8FAFC" text-anchor="middle">Close Tab</text>
    <text x="90" y="80" font-family="Segoe UI, Roboto, sans-serif" font-size="12" fill="#94A3B8" text-anchor="middle">DOWN-RIGHT</text>
  </g>
</svg>
